<?xml version="1.0" encoding="UTF-8"?>

<svg version="1.2" baseProfile="tiny" width="47mm" height="21mm" viewBox="0 0 4700 2100" preserveAspectRatio="xMidYMid" fill-rule="evenodd" stroke-width="28.222" stroke-linejoin="round" xmlns="http://www.w3.org/2000/svg" xmlns:ooo="http://xml.openoffice.org/svg/export" xmlns:xlink="http://www.w3.org/1999/xlink" xml:space="preserve">
 <defs class="ClipPathGroup">
  <clipPath id="presentation_clip_path" clipPathUnits="userSpaceOnUse">
   <rect x="0" y="0" width="4700" height="2100"/>
  </clipPath>
 </defs>
 <defs class="TextShapeIndex">
  <g ooo:slide="id1" ooo:id-list="id3 id4 id5 id6 id7 id8 id9"/>
 </defs>
 <defs class="EmbeddedBulletChars">
  <g id="bullet-char-template(57356)" transform="scale(0.00048828125,-0.00048828125)">
   <path d="M 580,1141 L 1163,571 580,0 -4,571 580,1141 Z"/>
  </g>
  <g id="bullet-char-template(57354)" transform="scale(0.00048828125,-0.00048828125)">
   <path d="M 8,1128 L 1137,1128 1137,0 8,0 8,1128 Z"/>
  </g>
  <g id="bullet-char-template(10146)" transform="scale(0.00048828125,-0.00048828125)">
   <path d="M 174,0 L 602,739 174,1481 1456,739 174,0 Z M 1358,739 L 309,1346 659,739 1358,739 Z"/>
  </g>
  <g id="bullet-char-template(10132)" transform="scale(0.00048828125,-0.00048828125)">
   <path d="M 2015,739 L 1276,0 717,0 1260,543 174,543 174,936 1260,936 717,1481 1274,1481 2015,739 Z"/>
  </g>
  <g id="bullet-char-template(10007)" transform="scale(0.00048828125,-0.00048828125)">
   <path d="M 0,-2 C -7,14 -16,27 -25,37 L 356,567 C 262,823 215,952 215,954 215,979 228,992 255,992 264,992 276,990 289,987 310,991 331,999 354,1012 L 381,999 492,748 772,1049 836,1024 860,1049 C 881,1039 901,1025 922,1006 886,937 835,863 770,784 769,783 710,716 594,584 L 774,223 C 774,196 753,168 711,139 L 727,119 C 717,90 699,76 672,76 641,76 570,178 457,381 L 164,-76 C 142,-110 111,-127 72,-127 30,-127 9,-110 8,-76 1,-67 -2,-52 -2,-32 -2,-23 -1,-13 0,-2 Z"/>
  </g>
  <g id="bullet-char-template(10004)" transform="scale(0.00048828125,-0.00048828125)">
   <path d="M 285,-33 C 182,-33 111,30 74,156 52,228 41,333 41,471 41,549 55,616 82,672 116,743 169,778 240,778 293,778 328,747 346,684 L 369,508 C 377,444 397,411 428,410 L 1163,1116 C 1174,1127 1196,1133 1229,1133 1271,1133 1292,1118 1292,1087 L 1292,965 C 1292,929 1282,901 1262,881 L 442,47 C 390,-6 338,-33 285,-33 Z"/>
  </g>
  <g id="bullet-char-template(9679)" transform="scale(0.00048828125,-0.00048828125)">
   <path d="M 813,0 C 632,0 489,54 383,161 276,268 223,411 223,592 223,773 276,916 383,1023 489,1130 632,1184 813,1184 992,1184 1136,1130 1245,1023 1353,916 1407,772 1407,592 1407,412 1353,268 1245,161 1136,54 992,0 813,0 Z"/>
  </g>
  <g id="bullet-char-template(8226)" transform="scale(0.00048828125,-0.00048828125)">
   <path d="M 346,457 C 273,457 209,483 155,535 101,586 74,649 74,723 74,796 101,859 155,911 209,963 273,989 346,989 419,989 480,963 531,910 582,859 608,796 608,723 608,648 583,586 532,535 482,483 420,457 346,457 Z"/>
  </g>
  <g id="bullet-char-template(8211)" transform="scale(0.00048828125,-0.00048828125)">
   <path d="M -4,459 L 1135,459 1135,606 -4,606 -4,459 Z"/>
  </g>
 </defs>
 <defs class="TextEmbeddedBitmaps"/>
 <g>
  <g id="id2" class="Master_Slide">
   <g id="bg-id2" class="Background"/>
   <g id="bo-id2" class="BackgroundObjects"/>
  </g>
 </g>
 <g class="SlideGroup">
  <g>
   <g id="id1" class="Slide" clip-path="url(#presentation_clip_path)">
    <g class="Page">
     <g class="Group">
      <g class="com.sun.star.drawing.ClosedBezierShape">
       <g id="id3">
        <path fill="rgb(0,0,0)" stroke="none" d="M 2678,433 C 2686,441 2712,429 2739,385 2765,342 2786,250 2760,231 2739,215 2705,251 2703,266 2699,295 2732,299 2707,369 2693,408 2666,424 2678,433 Z"/>
       </g>
      </g>
      <g class="com.sun.star.drawing.ClosedBezierShape">
       <g id="id4">
        <path fill="rgb(0,0,0)" stroke="none" d="M 2777,390 C 2798,397 2818,350 2830,322 2843,294 2875,252 2892,230 2909,207 2922,165 2908,159 2894,154 2881,166 2857,193 2833,220 2825,267 2805,317 2791,352 2758,384 2777,390 Z"/>
       </g>
      </g>
      <g class="com.sun.star.drawing.ClosedBezierShape">
       <g id="id5">
        <path fill="rgb(0,0,0)" stroke="none" d="M 2852,333 C 2834,371 2831,374 2824,400 2817,427 2847,434 2858,396 2865,372 2903,327 2927,316 2956,302 2995,261 2961,243 2927,225 2871,295 2852,333 Z"/>
       </g>
      </g>
      <g class="com.sun.star.drawing.ClosedBezierShape">
       <g id="id6">
        <path fill="rgb(0,0,0)" stroke="none" d="M 2835,610 C 2835,610 2840,516 2761,522 2628,531 2486,656 2486,656 2513,603 2542,517 2497,516 2452,515 2279,635 2279,635 2279,635 2304,534 2199,525 2093,516 2001,595 2001,595 2003,576 1993,526 1908,522 1824,517 1662,642 1662,642 1675,618 1707,533 1675,525 1621,512 1446,631 1446,631 1476,564 1509,527 1509,527 1043,443 746,631 746,631 779,571 724,673 724,673 838,612 940,593 940,593 940,593 731,746 782,857 834,968 1039,832 1039,832 1088,963 1258,845 1258,845 1258,845 1075,1122 874,1338 517,1720 100,2000 100,2000 L 128,2000 C 128,2000 608,1677 951,1314 1252,995 1416,687 1416,687 1493,631 1579,580 1594,595 1609,611 1586,667 1549,731 1511,795 1384,1015 1098,1362 812,1710 522,1932 522,1932 L 546,1932 C 546,1932 799,1734 1087,1426 1375,1118 1480,939 1480,939 1480,939 1538,891 1622,889 1753,887 1860,955 2006,928 2252,882 2297,802 2297,802 2132,885 2068,863 2068,863 2225,775 2278,659 2278,659 2345,607 2414,575 2435,593 2456,612 2397,735 2343,824 2289,914 2112,1212 1864,1478 1531,1837 1304,1997 1304,1997 L 1328,1997 C 1328,1997 1802,1624 2076,1285 2310,995 2458,724 2458,724 2597,576 2701,593 2720,610 2739,626 2778,691 2697,782 2616,874 2576,828 2576,828 2576,828 2582,799 2564,776 2534,740 2438,808 2493,874 2543,936 2635,889 2724,816 2814,743 2835,610 2835,610 Z M 1041,793 C 1041,793 912,867 875,814 843,769 895,634 1013,589 1013,589 1122,574 1199,579 1199,579 1032,696 1041,793 Z M 1288,787 C 1288,787 1177,844 1130,807 1084,770 1166,636 1251,584 1251,584 1333,584 1405,601 L 1288,787 Z M 1793,840 C 1793,840 1638,822 1530,875 L 1619,729 C 1619,729 1676,668 1740,625 1801,585 1876,563 1903,614 1922,651 1905,700 1882,738 1848,794 1793,840 1793,840 Z M 2018,863 C 2018,863 1925,854 1829,843 1829,843 1982,733 1998,636 1998,636 2140,538 2178,617 2211,687 2123,818 2018,863 Z"/>
       </g>
      </g>
      <g class="com.sun.star.drawing.ClosedBezierShape">
       <g id="id7">
        <path fill="rgb(0,0,0)" stroke="none" d="M 2019,468 C 2152,488 2258,474 2306,450 2355,426 2421,337 2370,335 2319,333 2318,406 2318,406 2218,441 2166,407 1993,391 1892,382 1812,408 1758,427 1649,467 1629,525 1629,525 1747,449 1886,448 2019,468 Z"/>
       </g>
      </g>
      <g class="com.sun.star.drawing.ClosedBezierShape">
       <g id="id8">
        <path fill="rgb(0,0,0)" stroke="none" d="M 2039,373 C 2053,376 2094,346 2108,320 2121,293 2169,246 2191,230 2213,215 2229,195 2204,194 2179,193 2133,212 2118,237 2102,262 2077,316 2059,331 2030,357 2026,370 2039,373 Z"/>
       </g>
      </g>
      <g class="com.sun.star.drawing.ClosedBezierShape">
       <g id="id9">
        <path fill="rgb(0,0,0)" stroke="none" d="M 4424,514 L 4367,530 C 4300,639 4009,588 4009,588 4076,466 4216,316 4303,250 4390,184 4478,166 4536,206 4594,246 4587,304 4567,329 4547,354 4506,385 4456,363 4405,341 4420,305 4420,305 4448,341 4479,326 4499,303 4514,286 4527,255 4502,232 4438,174 4291,324 4422,405 4486,445 4563,407 4612,344 4648,297 4675,191 4615,136 4514,43 4332,189 4332,189 4258,123 4172,129 4065,247 3948,376 3841,565 3841,565 3682,541 3623,570 3550,598 3476,625 3393,610 3281,588 3169,566 3077,571 3077,571 3175,414 3309,294 3385,236 3460,177 3543,153 3594,177 3644,201 3682,266 3619,319 3566,362 3499,299 3499,299 3572,303 3612,233 3569,202 3527,170 3489,207 3475,228 3460,249 3416,314 3484,359 3537,394 3617,380 3660,339 3714,289 3742,201 3688,146 3621,77 3492,99 3335,238 3178,377 3037,578 3037,578 2904,612 2781,683 2781,683 L 2775,716 C 2965,598 3109,641 3109,641 2679,846 2692,1076 2793,1177 2894,1278 3084,1278 3207,1203 3378,1099 3343,986 3343,986 3487,937 3599,817 3599,817 3599,817 3566,934 3676,941 3810,949 3938,824 3938,824 3938,824 3775,1163 3527,1484 3401,1646 3280,1760 3188,1843 3073,1946 3001,1999 3001,1999 L 3027,1999 C 3428,1702 3683,1365 3838,1106 3993,846 4092,659 4092,659 4307,672 4424,514 4424,514 Z M 3979,401 C 4062,284 4128,232 4174,220 4220,208 4260,250 4260,250 4147,328 3977,580 3977,580 L 3867,566 C 3867,566 3895,517 3979,401 Z M 3511,862 C 3430,930 3342,959 3342,959 3342,959 3343,892 3296,853 3238,804 3193,826 3163,860 3133,894 3124,953 3175,991 3227,1028 3300,1006 3300,1006 3305,1070 3263,1117 3209,1146 3114,1196 2988,1205 2889,1130 2764,1036 2801,893 2914,794 3028,695 3150,663 3191,661 3232,660 3275,680 3351,680 3426,679 3467,653 3542,624 3617,595 3738,619 3738,619 3692,679 3593,793 3511,862 Z M 3296,971 C 3188,979 3168,896 3185,878 3203,861 3227,864 3256,889 3294,924 3296,971 3296,971 Z M 4031,658 L 3984,743 C 3984,743 3785,959 3705,844 3637,748 3799,622 3799,622 3799,622 3929,651 4031,658 Z"/>
       </g>
      </g>
     </g>
    </g>
   </g>
  </g>
 </g>
</svg>